<svg width="185" height="40" viewBox="0 0 185 40" fill="none"
    xmlns="http://www.w3.org/2000/svg">
    <g id="logo.c308b163 1">
        <g id="Landing-Page">
            <g id="Landing-page-Copy">
                <g id="logo">
                    <g id="Group-5">
                        <g id="Logo">
                            <g id="Group-6">
                                <g id="Logo-/-Icon-/-Mobile-Copy">
                                    <path id="Combined-Shape" d="M12.0957 38.4147C12.0957 37.7281 12.6794 37.1664 13.3928 37.1664C14.1062 37.1664 14.69 37.7281 14.69 38.4147C14.69 39.1014 14.1062 39.6631 13.3928 39.6631C12.6794 39.6631 12.0957 39.1326 12.0957 38.4147ZM12.0957 1.27518C12.0957 0.588569 12.6794 0.0267944 13.3928 0.0267944C14.1062 0.0267944 14.69 0.588569 14.69 1.27518C14.69 1.9618 14.1062 2.52357 13.3928 2.52357C12.6794 2.52357 12.0957 1.99301 12.0957 1.27518ZM5.61007 7.51713C5.61007 6.83051 6.19378 6.26874 6.9072 6.26874C7.62061 6.26874 8.20432 6.83051 8.20432 7.51713C8.20432 8.20374 7.62061 8.76552 6.9072 8.76552C6.19378 8.76552 5.61007 8.23495 5.61007 7.51713ZM6.16135 13.7591C6.16135 13.3533 6.48563 13.0412 6.9072 13.0412C7.32876 13.0412 7.65304 13.3533 7.65304 13.7591C7.65304 14.1648 7.32876 14.4769 6.9072 14.4769C6.48563 14.4769 6.16135 14.1648 6.16135 13.7591ZM0 13.7591C0 13.5406 0.194569 13.3533 0.421566 13.3533C0.648563 13.3533 0.843132 13.5406 0.843132 13.7591C0.843132 13.9775 0.648563 14.1648 0.421566 14.1648C0.194569 14.1648 0 14.0087 0 13.7591ZM0 19.5953C0 19.3768 0.194569 19.1896 0.421566 19.1896C0.648563 19.1896 0.843132 19.3768 0.843132 19.5953C0.843132 19.8138 0.648563 20.001 0.421566 20.001C0.194569 20.001 0 19.8138 0 19.5953ZM0 26.243C0 26.0245 0.194569 25.8372 0.421566 25.8372C0.648563 25.8372 0.843132 26.0245 0.843132 26.243C0.843132 26.4614 0.648563 26.6487 0.421566 26.6487C0.194569 26.6487 0 26.4926 0 26.243ZM6.16135 19.5953C6.16135 19.1896 6.48563 18.8775 6.9072 18.8775C7.32876 18.8775 7.65304 19.1896 7.65304 19.5953C7.65304 20.001 7.32876 20.3131 6.9072 20.3131C6.48563 20.3131 6.16135 20.001 6.16135 19.5953ZM6.16135 26.243C6.16135 25.8372 6.48563 25.5251 6.9072 25.5251C7.32876 25.5251 7.65304 25.8372 7.65304 26.243C7.65304 26.6487 7.32876 26.9608 6.9072 26.9608C6.48563 26.9608 6.16135 26.6487 6.16135 26.243ZM5.61007 32.4849C5.61007 31.7983 6.19378 31.2365 6.9072 31.2365C7.62061 31.2365 8.20432 31.7983 8.20432 32.4849C8.20432 33.1715 7.62061 33.7333 6.9072 33.7333C6.19378 33.7333 5.61007 33.2027 5.61007 32.4849ZM11.2201 7.20503C11.2201 5.95664 12.2254 5.11398 13.3928 5.11398C14.69 5.11398 15.5655 6.08148 15.5655 7.20503C15.5655 8.32858 14.5602 9.29608 13.3928 9.29608C12.0957 9.29608 11.2201 8.32858 11.2201 7.20503ZM18.3543 7.51713C18.3543 6.26874 19.3596 5.42608 20.527 5.42608C21.8241 5.42608 22.6997 6.39358 22.6997 7.51713C22.6997 8.64068 21.6944 9.60818 20.527 9.60818C19.2299 9.60818 18.3543 8.64068 18.3543 7.51713ZM18.3543 32.4849C18.3543 31.2365 19.3596 30.3938 20.527 30.3938C21.8241 30.3938 22.6997 31.3614 22.6997 32.4849C22.6997 33.6085 21.6944 34.576 20.527 34.576C19.2299 34.576 18.3543 33.6085 18.3543 32.4849ZM18.3543 19.6889C18.3543 18.4405 19.3596 17.5979 20.527 17.5979C21.8241 17.5979 22.6997 18.5654 22.6997 19.6889C22.6997 20.8125 21.6944 21.78 20.527 21.78C19.2299 21.78 18.3543 20.8125 18.3543 19.6889ZM11.2201 32.1728C11.2201 30.9244 12.2254 30.0818 13.3928 30.0818C14.69 30.0818 15.5655 31.0493 15.5655 32.1728C15.5655 33.2964 14.5602 34.2639 13.3928 34.2639C12.0957 34.2639 11.2201 33.2964 11.2201 32.1728ZM10.831 13.1349C10.831 11.6368 12.0308 10.6693 13.3928 10.6693C14.9494 10.6693 15.9546 11.8241 15.9546 13.1349C15.9546 14.4457 14.7548 15.6004 13.3928 15.6004C11.8363 15.6317 10.831 14.4769 10.831 13.1349ZM10.831 26.243C10.831 24.7449 12.0308 23.7774 13.3928 23.7774C14.9494 23.7774 15.9546 24.9321 15.9546 26.243C15.9546 27.5538 14.7548 28.7085 13.3928 28.7085C11.8363 28.7397 10.831 27.585 10.831 26.243ZM24.0293 14.6642C23.3158 13.3846 23.8023 11.8865 25.0994 11.1687C26.4289 10.482 27.9855 10.9502 28.7313 12.1986C29.4448 13.4782 28.9583 14.9762 27.6612 15.6941C27.3045 15.9125 26.8181 16.0374 26.4614 16.0374C25.4561 16.0686 24.4833 15.4756 24.0293 14.6642ZM10.7661 20.9373C9.95544 19.5017 10.5067 17.8163 11.9984 17.0361C13.4901 16.2558 15.2412 16.7864 16.0519 18.2221C16.8626 19.6577 16.3114 21.343 14.8197 22.1233C14.3981 22.373 13.8792 22.529 13.4577 22.529C12.3876 22.4978 11.285 21.8736 10.7661 20.9373ZM23.5428 27.3977C22.6673 25.8684 23.251 24.0583 24.84 23.2156C26.4289 22.373 28.3098 22.9347 29.1853 24.464C30.0609 25.9933 29.4772 27.8034 27.8882 28.6461C27.4666 28.927 26.8829 29.0518 26.4289 29.0518C25.294 29.0518 24.1265 28.3652 23.5428 27.3977Z" fill="#FF5111"/>
                                </g>
                            </g>
                            <path id="JackCasinoBit" d="M46 26.796C46 27.804 45.688 28.62 45.064 29.244C44.44 29.844 43.624 30.144 42.616 30.144H41.104C40.096 30.144 39.28 29.844 38.656 29.244C38.032 28.62 37.72 27.804 37.72 26.796V19.272H41.14V26.616C41.14 26.736 41.2 26.796 41.32 26.796H42.4C42.52 26.796 42.58 26.736 42.58 26.616V8.148H41.14L41.428 4.8H46V26.796ZM51.0591 30C49.9551 30 49.0671 29.688 48.3951 29.064C47.7471 28.416 47.4231 27.612 47.4231 26.652V15.348C47.4231 14.364 47.7471 13.56 48.3951 12.936C49.0671 12.312 49.9551 12 51.0591 12H51.2031C51.8511 12 52.4271 12.156 52.9311 12.468V12H56.3511V26.652H56.8551L57.2151 30H52.9311V28.596L52.0311 30H51.0591ZM51.0231 15.348C50.9031 15.348 50.8431 15.408 50.8431 15.528V26.472C50.8431 26.592 50.9031 26.652 51.0231 26.652H52.9311V15.348H51.0231ZM57.9348 26.796V15.204C57.9348 14.196 58.2468 13.392 58.8708 12.792C59.4948 12.168 60.3108 11.856 61.3188 11.856H63.9108C64.9188 11.856 65.7348 12.168 66.3588 12.792C66.9828 13.392 67.2948 14.196 67.2948 15.204V19.956L63.8748 19.596V15.384C63.8748 15.264 63.8148 15.204 63.6948 15.204H61.5348C61.4148 15.204 61.3548 15.264 61.3548 15.384V26.616C61.3548 26.736 61.4148 26.796 61.5348 26.796H63.6948C63.8148 26.796 63.8748 26.748 63.8748 26.652V22.476H67.2948V26.796C67.2948 27.804 66.9828 28.62 66.3588 29.244C65.7348 29.844 64.9188 30.144 63.9108 30.144H61.3188C60.3108 30.144 59.4948 29.844 58.8708 29.244C58.2468 28.62 57.9348 27.804 57.9348 26.796ZM68.8803 30V8.148H68.0163L68.3763 4.8H72.3003V17.868L75.1803 12H78.5283L74.7123 19.74L78.8883 30H75.5403L72.3003 22.044V30H68.8803ZM88.9511 19.056V26.796C88.9511 27.804 88.6391 28.62 88.0151 29.244C87.3911 29.844 86.5751 30.144 85.5671 30.144H82.9751C81.9671 30.144 81.1511 29.844 80.5271 29.244C79.9031 28.62 79.5911 27.804 79.5911 26.796V8.004C79.5911 6.996 79.9031 6.192 80.5271 5.592C81.1511 4.968 81.9671 4.656 82.9751 4.656H85.5671C86.5751 4.656 87.3911 4.968 88.0151 5.592C88.6391 6.192 88.9511 6.996 88.9511 8.004V16.068L85.5311 15.708V8.184C85.5311 8.064 85.4711 8.004 85.3511 8.004H83.1911C83.0711 8.004 83.0111 8.064 83.0111 8.184V26.616C83.0111 26.736 83.0711 26.796 83.1911 26.796H85.3511C85.4711 26.796 85.5311 26.736 85.5311 26.616V19.056H88.9511ZM94.0201 30C92.9161 30 92.0281 29.688 91.3561 29.064C90.7081 28.416 90.3841 27.612 90.3841 26.652V15.348C90.3841 14.364 90.7081 13.56 91.3561 12.936C92.0281 12.312 92.9161 12 94.0201 12H94.1641C94.8121 12 95.3881 12.156 95.8921 12.468V12H99.3121V26.652H99.8161L100.176 30H95.8921V28.596L94.9921 30H94.0201ZM93.9841 15.348C93.8641 15.348 93.8041 15.408 93.8041 15.528V26.472C93.8041 26.592 93.8641 26.652 93.9841 26.652H95.8921V15.348H93.9841ZM101.072 24.348L104.492 24.708V26.472C104.492 26.592 104.552 26.652 104.672 26.652H106.112C106.232 26.652 106.292 26.592 106.292 26.472V23.124L103.088 21.756C102.704 21.588 102.272 21.324 101.792 20.964C101.312 20.604 101.072 20.016 101.072 19.2V15.204C101.072 14.196 101.384 13.392 102.008 12.792C102.632 12.168 103.448 11.856 104.456 11.856H106.328C107.336 11.856 108.152 12.168 108.776 12.792C109.4 13.392 109.712 14.196 109.712 15.204V17.508L106.292 17.148V15.384C106.292 15.264 106.232 15.204 106.112 15.204H104.672C104.552 15.204 104.492 15.264 104.492 15.384V18.732L107.696 20.1C108.08 20.268 108.512 20.532 108.992 20.892C109.472 21.252 109.712 21.84 109.712 22.656V26.652C109.712 27.66 109.4 28.476 108.776 29.1C108.152 29.7 107.336 30 106.328 30H104.456C103.448 30 102.632 29.7 102.008 29.1C101.384 28.476 101.072 27.66 101.072 26.652V24.348ZM114.401 7.212L114.761 10.56H111.341V7.212H114.401ZM114.761 12V30H111.341V15.348H110.801L111.161 12H114.761ZM116.693 30V15.348H115.829L116.189 12H120.113V13.404L121.013 12H121.985C123.089 12 123.965 12.312 124.613 12.936C125.285 13.56 125.621 14.364 125.621 15.348V26.652H126.521L126.161 30H122.201V15.528C122.201 15.408 122.141 15.348 122.021 15.348H120.113V30H116.693ZM133.203 15.384C133.203 15.264 133.143 15.204 133.023 15.204H130.863C130.743 15.204 130.683 15.264 130.683 15.384V26.616C130.683 26.736 130.743 26.796 130.863 26.796H133.023C133.143 26.796 133.203 26.748 133.203 26.652V15.384ZM127.263 26.796V15.204C127.263 14.196 127.575 13.392 128.199 12.792C128.823 12.168 129.639 11.856 130.647 11.856H133.239C134.247 11.856 135.063 12.168 135.687 12.792C136.311 13.392 136.623 14.196 136.623 15.204V26.796C136.623 27.804 136.311 28.62 135.687 29.244C135.063 29.844 134.247 30.144 133.239 30.144H130.647C129.639 30.144 128.823 29.844 128.199 29.244C127.575 28.62 127.263 27.804 127.263 26.796ZM138.056 30.252V8.148H137.516L137.876 4.8H143.564C144.572 4.8 145.388 5.112 146.012 5.736C146.636 6.336 146.948 7.14 146.948 8.148V15.708C146.948 16.044 146.9 16.368 146.804 16.68C147.38 17.304 147.668 18.096 147.668 19.056V26.904C147.668 27.912 147.284 28.728 146.516 29.352C145.772 29.952 144.896 30.252 143.888 30.252H138.056ZM143.348 8.148H141.476V15.708H143.348C143.468 15.708 143.528 15.648 143.528 15.528V8.328C143.528 8.208 143.468 8.148 143.348 8.148ZM144.068 19.056H141.476V26.904H144.068C144.188 26.904 144.248 26.844 144.248 26.724V19.236C144.248 19.116 144.188 19.056 144.068 19.056ZM152.335 7.212L152.695 10.56H149.275V7.212H152.335ZM152.695 12V30H149.275V15.348H148.735L149.095 12H152.695ZM160.746 26.652V30H158.658C157.65 30 156.834 29.7 156.21 29.1C155.586 28.476 155.274 27.66 155.274 26.652V15.348H153.762L154.05 12H155.274V8.148H154.374L154.662 4.8H158.694V12H160.746L160.458 15.348H158.694V26.652H160.746Z" fill="white"/>
                        </g>
                    </g>
                </g>
            </g>
        </g>
    </g>
</svg>
